<svg width="48" height="48" viewBox="0 0 48 48" fill="none" xmlns="http://www.w3.org/2000/svg">
<g clip-path="url(#clip0_497_12755)">
<path d="M38.206 29.6927C38.4136 29.0978 38.5279 28.4594 38.5279 27.7946C38.5279 24.9785 36.5027 22.6276 33.8324 22.1185C34.04 21.5235 34.1542 20.8852 34.1542 20.2204C34.1542 17.4027 32.1264 15.0508 29.4535 14.5435C29.6641 13.9447 29.78 13.3017 29.78 12.6319C29.78 9.44544 27.187 6.85297 23.9999 6.85297C20.8128 6.85297 18.2198 9.44534 18.2198 12.6319C18.2198 13.3017 18.3357 13.9447 18.5463 14.5435C15.8734 15.0508 13.8456 17.4027 13.8456 20.2204C13.8456 20.8852 13.9598 21.5235 14.1674 22.1185C11.4971 22.6276 9.47194 24.9785 9.47194 27.7946C9.47194 28.4594 9.58622 29.0977 9.79378 29.6927C7.12322 30.2019 5.09766 32.5527 5.09766 35.3688C5.09766 38.5553 7.69097 41.1477 10.8785 41.1477C12.6247 41.1477 14.1914 40.3684 15.2522 39.1406C16.3131 40.3684 17.8799 41.1477 19.6264 41.1477C21.3726 41.1477 22.9391 40.3685 23.9999 39.1407C25.0607 40.3685 26.6272 41.1477 28.3734 41.1477C30.1199 41.1477 31.6867 40.3684 32.7476 39.1406C33.8084 40.3684 35.3751 41.1477 37.1213 41.1477C40.3088 41.1477 42.9022 38.5554 42.9022 35.3688C42.9022 32.5527 40.8767 30.2019 38.206 29.6927ZM28.3735 17.2533C30.0099 17.2533 31.3413 18.5844 31.3413 20.2204C31.3413 21.8561 30.0099 23.1868 28.3735 23.1868C26.7375 23.1868 25.4065 21.8562 25.4065 20.2204C25.4065 18.5844 26.7375 17.2533 28.3735 17.2533ZM24 9.66556C25.636 9.66556 26.967 10.9962 26.967 12.632C26.967 14.2677 25.636 15.5983 24 15.5983C22.364 15.5983 21.033 14.2677 21.033 12.6319C21.033 10.9962 22.364 9.66556 24 9.66556ZM19.6265 17.2533C21.2625 17.2533 22.5935 18.5844 22.5935 20.2204C22.5935 21.8561 21.2625 23.1868 19.6265 23.1868C17.9901 23.1868 16.6587 21.8562 16.6587 20.2204C16.6587 18.5844 17.9901 17.2533 19.6265 17.2533ZM10.8787 38.3352C9.24225 38.3352 7.91091 37.0046 7.91091 35.3688C7.91091 33.7328 9.24225 32.4017 10.8787 32.4017C12.5148 32.4017 13.8457 33.7328 13.8457 35.3688C13.8457 37.0046 12.5147 38.3352 10.8787 38.3352ZM15.2522 30.7611C13.6161 30.7611 12.2851 29.4304 12.2851 27.7946C12.2851 26.1585 13.6161 24.8275 15.2522 24.8275C16.8886 24.8275 18.2199 26.1585 18.2199 27.7946C18.2199 29.4304 16.8886 30.7611 15.2522 30.7611ZM19.6265 38.3352C17.9901 38.3352 16.6587 37.0046 16.6587 35.3688C16.6587 33.7328 17.9901 32.4017 19.6265 32.4017C21.2625 32.4017 22.5935 33.7328 22.5935 35.3688C22.5935 37.0046 21.2625 38.3352 19.6265 38.3352ZM24 30.7611C22.364 30.7611 21.033 29.4304 21.033 27.7946C21.033 26.1585 22.364 24.8275 24 24.8275C25.636 24.8275 26.967 26.1585 26.967 27.7946C26.967 29.4304 25.636 30.7611 24 30.7611ZM28.3735 38.3352C26.7375 38.3352 25.4065 37.0046 25.4065 35.3688C25.4065 33.7328 26.7375 32.4017 28.3735 32.4017C30.0099 32.4017 31.3413 33.7328 31.3413 35.3688C31.3412 37.0046 30.0098 38.3352 28.3735 38.3352ZM32.7477 30.7611C31.1113 30.7611 29.78 29.4304 29.78 27.7946C29.78 26.1585 31.1113 24.8275 32.7477 24.8275C34.3838 24.8275 35.7148 26.1585 35.7148 27.7946C35.7148 29.4304 34.3838 30.7611 32.7477 30.7611ZM37.1213 38.3352C35.4852 38.3352 34.1542 37.0046 34.1542 35.3688C34.1542 33.7328 35.4852 32.4017 37.1213 32.4017C38.7577 32.4017 40.0891 33.7328 40.0891 35.3688C40.0891 37.0046 38.7577 38.3352 37.1213 38.3352Z" fill="#00AA81"/>
<path d="M46.548 29.9304L33.4268 7.1943C31.4894 3.83655 27.8773 1.75061 24 1.75061C20.1227 1.75061 16.5106 3.83655 14.5734 7.1942L1.45193 29.9304V29.9305C-0.48457 33.2863 -0.484008 37.4554 1.4538 40.8111C3.39237 44.1655 7.00371 46.2495 10.8787 46.2495H37.1215C40.9963 46.2495 44.6078 44.1655 46.5465 40.8107C48.484 37.4553 48.4846 33.2863 46.548 29.9304ZM44.1104 39.4041C42.673 41.8916 39.9949 43.437 37.1214 43.437H10.8787C8.00515 43.437 5.32709 41.8917 3.8898 39.4045C2.45299 36.9162 2.45252 33.8245 3.88849 31.336V31.3361L17.0099 8.59961C18.4466 6.1098 21.125 4.56311 24 4.56311C26.8751 4.56311 29.5535 6.1098 30.9902 8.59989L44.1116 31.336C45.5475 33.8245 45.5471 36.9161 44.1104 39.4041Z" fill="#00AA81"/>
</g>
<defs>
<clipPath id="clip0_497_12755">
<rect width="48" height="48" fill="white"/>
</clipPath>
</defs>
</svg>
