<svg width="20" height="20" viewBox="0 0 20 20" fill="none" xmlns="http://www.w3.org/2000/svg">
<g clip-path="url(#clip0_490_11329)">
<path d="M19.9554 4.75493C19.8647 4.53599 19.651 4.39321 19.4141 4.39321H15.6068V0.585948C15.6068 0.348956 15.464 0.135323 15.2451 0.0446201C15.0261 -0.046083 14.774 0.0040732 14.6065 0.171651L10.8409 3.93728C10.731 4.04712 10.6692 4.19618 10.6692 4.35157V8.49017C10.2039 8.8972 9.57045 9.25778 8.84955 9.66778C7.69119 10.3266 6.24959 11.1465 4.84318 12.553L4.84314 12.553C3.49553 13.9009 3.21287 15.4203 3.15369 16.0177L0.171621 18.9997C-0.057207 19.2285 -0.057207 19.5995 0.171621 19.8283C0.400449 20.0572 0.771465 20.0572 1.00025 19.8283L3.98229 16.8463C4.57967 16.7872 6.09928 16.5046 7.44701 15.1568C8.85346 13.7503 9.67342 12.3087 10.3322 11.1504C10.7423 10.4295 11.1028 9.79607 11.5099 9.33071H15.6485C15.8038 9.33071 15.9529 9.269 16.0628 9.15907L19.8284 5.39349C19.996 5.22591 20.0461 4.97392 19.9554 4.75493ZM6.61834 14.3282C5.83314 15.1134 4.98713 15.4459 4.41342 15.5868C4.55432 15.0125 4.88689 14.1667 5.67186 13.3816L5.67182 13.3817C6.86717 12.1863 8.07412 11.4603 9.16076 10.8392C8.53971 11.9259 7.81373 13.1328 6.61834 14.3282ZM11.8412 4.59427L14.4349 2.00052V4.7365L11.8412 7.33025V4.59427ZM15.4057 8.15884H12.6698L15.2635 5.56513H17.9995L15.4057 8.15884Z" fill="#00AA81"/>
</g>
<defs>
<clipPath id="clip0_490_11329">
<rect width="20" height="20" fill="white"/>
</clipPath>
</defs>
</svg>
