<svg width="32" height="32" viewBox="0 0 32 32" fill="none" xmlns="http://www.w3.org/2000/svg">
<path d="M28.497 11.7832L25.5503 5.89162H28.05C28.5677 5.89162 28.9875 5.47188 28.9875 4.95412V0.9375C28.9875 0.41975 28.5677 0 28.05 0H20.0167C19.4989 0 19.0792 0.41975 19.0792 0.9375V17.0041C19.0792 18.702 17.6978 20.0833 16 20.0833C14.3021 20.0833 12.9208 18.702 12.9208 17.0041V0.9375C12.9208 0.41975 12.501 0 11.9833 0H3.94997C3.43222 0 3.01247 0.41975 3.01247 0.9375V4.95419C3.01247 5.47194 3.43222 5.89169 3.94997 5.89169H6.44966L3.50291 11.7833C0.421908 17.9503 2.89778 23.4031 4.11653 25.3748C5.32891 27.3362 9.09672 32 16 32C22.9032 32 26.671 27.3362 27.8834 25.3747C29.1022 23.4031 31.5781 17.9503 28.497 11.7832ZM26.2885 24.3888C25.4568 25.7344 22.2567 30.125 16 30.125C9.74328 30.125 6.54316 25.7345 5.71147 24.3889C4.87978 23.0435 2.38378 18.2188 5.18022 12.6213L8.80516 5.3735C8.95047 5.08294 8.93497 4.73775 8.76416 4.46138C8.59335 4.18494 8.29153 4.01675 7.96666 4.01675H4.88747V1.875H11.0458V17.0041C11.0458 19.7359 13.2682 21.9583 16 21.9583C18.7317 21.9583 20.9542 19.7359 20.9542 17.0041V1.875H27.1125V4.01669H24.0333C23.7084 4.01669 23.4067 4.18488 23.2358 4.46131C23.065 4.73769 23.0495 5.08281 23.1948 5.37344L26.8202 12.6221C29.6162 18.2188 27.1202 23.0434 26.2885 24.3888Z" fill="#FDEACE"/>
<path d="M7.4646 16.0667C6.94685 16.0667 6.5271 16.4864 6.5271 17.0042V18.0083C6.5271 18.5261 6.94685 18.9458 7.4646 18.9458C7.98235 18.9458 8.4021 18.5261 8.4021 18.0083V17.0042C8.4021 16.4864 7.98235 16.0667 7.4646 16.0667Z" fill="#FDEACE"/>
<path d="M10.2724 22.5239C9.90628 22.1577 9.31272 22.1577 8.94659 22.5239C8.58047 22.89 8.58047 23.4835 8.94659 23.8497L9.65665 24.5597C10.0228 24.9259 10.6163 24.9259 10.9825 24.5597C11.3486 24.1936 11.3486 23.6 10.9825 23.2339L10.2724 22.5239Z" fill="#FDEACE"/>
<path d="M16.502 25.1042H15.4979C14.9802 25.1042 14.5604 25.524 14.5604 26.0417C14.5604 26.5595 14.9802 26.9792 15.4979 26.9792H16.502C17.0198 26.9792 17.4395 26.5595 17.4395 26.0417C17.4395 25.524 17.0198 25.1042 16.502 25.1042Z" fill="#FDEACE"/>
<path d="M21.7276 22.5239L21.0175 23.2339C20.6514 23.6 20.6514 24.1936 21.0175 24.5597C21.3836 24.9259 21.9772 24.9259 22.3433 24.5597L23.0534 23.8497C23.4195 23.4835 23.4195 22.89 23.0534 22.5239C22.6873 22.1577 22.0937 22.1577 21.7276 22.5239Z" fill="#FDEACE"/>
<path d="M24.5354 16.0667C24.0177 16.0667 23.5979 16.4864 23.5979 17.0042V18.0083C23.5979 18.5261 24.0177 18.9458 24.5354 18.9458C25.0532 18.9458 25.4729 18.5261 25.4729 18.0083V17.0042C25.4729 16.4864 25.0532 16.0667 24.5354 16.0667Z" fill="#FDEACE"/>
</svg>
