<svg width="24" height="24" viewBox="0 0 24 24" fill="none" xmlns="http://www.w3.org/2000/svg">
<g clip-path="url(#clip0_497_12335)">
<path d="M14.5611 13.0089L14.1845 13.3855C13.91 13.6601 13.91 14.1053 14.1846 14.3799C14.4598 14.655 14.905 14.6538 15.1789 14.3798L15.5555 14.0032C15.83 13.7287 15.83 13.2834 15.5554 13.0088C15.2808 12.7343 14.8356 12.7343 14.5611 13.0089Z" fill="#445058"/>
<path d="M13.4314 16.3979L13.0548 16.7745C12.7802 17.049 12.7802 17.4942 13.0548 17.7689C13.3294 18.0435 13.7746 18.0434 14.0492 17.7689L14.4258 17.3923C14.7004 17.1178 14.7004 16.6726 14.4258 16.398C14.1512 16.1234 13.7061 16.1234 13.4314 16.3979Z" fill="#445058"/>
<path d="M21.5806 3.97177L20.4674 2.85862C18.7862 1.17731 16.3586 0 13.5656 0C11.1603 0 8.59829 0.903422 6.62719 2.89341L5.52132 4.00987C5.24799 4.28573 5.25005 4.73091 5.52591 5.00419L6.62593 6.0938L6.95841 6.40795C6.57601 6.72028 6.20654 7.05412 5.85418 7.40634C4.19091 9.06966 2.98613 11.052 2.37015 13.1389C1.7588 15.2101 1.76865 17.2237 2.39851 18.9638C1.26474 20.1205 1.27173 21.984 2.4196 23.1321C3.56213 24.2745 5.39626 24.2857 6.55323 23.1866C6.56537 23.1769 6.57723 23.1667 6.5888 23.1561C8.32927 23.7842 10.3427 23.7932 12.4132 23.1817C14.5002 22.5654 16.4823 21.3605 18.1454 19.6975C19.8088 18.0343 21.0136 16.052 21.6297 13.9649C22.241 11.8939 22.2312 9.88027 21.6015 8.14008C22.7352 6.98325 22.7282 5.11973 21.5806 3.97177ZM7.62629 3.88294C9.18544 2.30897 11.3502 1.40625 13.5663 1.40625C15.7977 1.40625 17.8953 2.27517 19.4729 3.85294L20.0889 4.46887L19.493 5.06494C17.9025 6.65531 15.7878 7.53122 13.5381 7.53122C11.3054 7.53122 9.20204 6.66586 7.61546 5.09461L7.01513 4.5L7.62629 3.88294ZM20.2746 8.60583C21.3886 11.6637 20.1337 15.7208 17.1511 18.7031C14.1696 21.6845 10.1122 22.9403 7.05329 21.8287C6.50433 21.6229 5.94357 21.8085 5.61469 22.1378C5.01277 22.7399 4.02676 22.7504 3.41401 22.1378C2.80819 21.5318 2.8073 20.5464 3.41143 19.9394C3.59307 19.7619 3.99319 19.2101 3.7254 18.4978C2.61151 15.4403 3.86616 11.3831 6.84849 8.40075C7.24468 8.00475 7.66449 7.63472 8.10066 7.29609C9.06362 7.93608 10.9506 8.93742 13.5385 8.93742C16.3517 8.93742 18.796 7.75059 20.4873 6.05925L20.964 5.58253C21.1393 6.12122 21.0142 6.7372 20.5879 7.16503C19.9879 7.76508 20.2316 8.49141 20.2746 8.60583Z" fill="#445058"/>
</g>
<defs>
<clipPath id="clip0_497_12335">
<rect width="24" height="24" fill="white"/>
</clipPath>
</defs>
</svg>
